<?xml version="1.0" encoding="UTF-8"?>
<svg width="800" height="700" xmlns="http://www.w3.org/2000/svg">
  <!-- 背景 -->
  <rect width="800" height="700" fill="#f8f9fa" rx="10" ry="10"/>
  
  <!-- 标题 -->
  <text x="400" y="40" font-family="'Noto Sans SC', sans-serif" font-size="22" text-anchor="middle" fill="#0066cc" font-weight="bold">Transformer架构</text>
  
  <!-- 左侧 - 编码器(Encoder) -->
  <g transform="translate(200, 100)">
    <!-- 编码器标题 -->
    <text x="0" y="0" font-family="'Noto Sans SC', sans-serif" font-size="18" text-anchor="middle" fill="#ff6666" font-weight="bold">编码器 (Encoder)</text>
    
    <!-- 编码器叠加层 N× -->
    <rect x="-100" y="20" width="200" height="340" fill="#ffffff" stroke="#ff6666" stroke-width="2" rx="10" ry="10"/>
    <text x="70" y="40" font-family="'Noto Sans SC', sans-serif" font-size="14" fill="#666666" font-style="italic">N×</text>
    
    <!-- 多头自注意力 -->
    <rect x="-80" y="60" width="160" height="70" fill="#ffe6e6" stroke="#ff6666" stroke-width="1" rx="5" ry="5"/>
    <text x="0" y="100" font-family="'Noto Sans SC', sans-serif" font-size="14" text-anchor="middle" fill="#333333" font-weight="bold">多头自注意力</text>
    <text x="0" y="120" font-family="'Noto Sans SC', sans-serif" font-size="12" text-anchor="middle" fill="#666666">(Multi-Head Self-Attention)</text>
    
    <!-- 编码器中的Add & Norm -->
    <rect x="-80" y="150" width="160" height="30" fill="#ffeecc" stroke="#ffcc00" stroke-width="1" rx="5" ry="5"/>
    <text x="0" y="170" font-family="'Noto Sans SC', sans-serif" font-size="14" text-anchor="middle" fill="#333333">Add &amp; Norm</text>
    
    <!-- 前馈神经网络 -->
    <rect x="-80" y="200" width="160" height="70" fill="#ffe6e6" stroke="#ff6666" stroke-width="1" rx="5" ry="5"/>
    <text x="0" y="240" font-family="'Noto Sans SC', sans-serif" font-size="14" text-anchor="middle" fill="#333333" font-weight="bold">前馈神经网络</text>
    <text x="0" y="260" font-family="'Noto Sans SC', sans-serif" font-size="12" text-anchor="middle" fill="#666666">(Feed Forward Network)</text>
    
    <!-- 编码器中的Add & Norm -->
    <rect x="-80" y="290" width="160" height="30" fill="#ffeecc" stroke="#ffcc00" stroke-width="1" rx="5" ry="5"/>
    <text x="0" y="310" font-family="'Noto Sans SC', sans-serif" font-size="14" text-anchor="middle" fill="#333333">Add &amp; Norm</text>
    
    <!-- 输入嵌入和位置编码 -->
    <rect x="-100" y="380" width="200" height="60" fill="#e6f5ff" stroke="#0099ff" stroke-width="1" rx="5" ry="5"/>
    <text x="0" y="410" font-family="'Noto Sans SC', sans-serif" font-size="14" text-anchor="middle" fill="#333333" font-weight="bold">输入嵌入 + 位置编码</text>
    <text x="0" y="430" font-family="'Noto Sans SC', sans-serif" font-size="12" text-anchor="middle" fill="#666666">(Input Embedding + Position Encoding)</text>
    
    <!-- 输入箭头 -->
    <path d="M 0,450 L 0,470" stroke="#666666" stroke-width="2" fill="none" marker-end="url(#arrowhead)"/>
    <text x="0" y="490" font-family="'Noto Sans SC', sans-serif" font-size="14" text-anchor="middle" fill="#333333">输入序列</text>
    
    <!-- 从输入到编码器的线 -->
    <path d="M 0,380 L 0,340" stroke="#666666" stroke-width="2" fill="none" marker-end="url(#arrowhead)"/>
    
    <!-- 从编码器到多头注意力的线 -->
    <path d="M 0,20 L 0,50" stroke="#666666" stroke-width="2" fill="none"/>
    <path d="M 0,130 L 0,150" stroke="#666666" stroke-width="2" fill="none"/>
    <path d="M 0,180 L 0,200" stroke="#666666" stroke-width="2" fill="none"/>
    <path d="M 0,270 L 0,290" stroke="#666666" stroke-width="2" fill="none"/>
    <path d="M 0,320 L 0,360 L 350,360 L 350,160" stroke="#666666" stroke-width="2" fill="none" marker-end="url(#arrowhead)"/>
  </g>
  
  <!-- 右侧 - 解码器(Decoder) -->
  <g transform="translate(600, 100)">
    <!-- 解码器标题 -->
    <text x="0" y="0" font-family="'Noto Sans SC', sans-serif" font-size="18" text-anchor="middle" fill="#0099ff" font-weight="bold">解码器 (Decoder)</text>
    
    <!-- 解码器叠加层 N× -->
    <rect x="-100" y="20" width="200" height="440" fill="#ffffff" stroke="#0099ff" stroke-width="2" rx="10" ry="10"/>
    <text x="70" y="40" font-family="'Noto Sans SC', sans-serif" font-size="14" fill="#666666" font-style="italic">N×</text>
    
    <!-- 掩码多头自注意力 -->
    <rect x="-80" y="60" width="160" height="70" fill="#e6f5ff" stroke="#0099ff" stroke-width="1" rx="5" ry="5"/>
    <text x="0" y="95" font-family="'Noto Sans SC', sans-serif" font-size="14" text-anchor="middle" fill="#333333" font-weight="bold">掩码多头自注意力</text>
    <text x="0" y="115" font-family="'Noto Sans SC', sans-serif" font-size="12" text-anchor="middle" fill="#666666">(Masked Multi-Head Self-Attention)</text>
    
    <!-- 解码器中的Add & Norm 1 -->
    <rect x="-80" y="150" width="160" height="30" fill="#ffeecc" stroke="#ffcc00" stroke-width="1" rx="5" ry="5"/>
    <text x="0" y="170" font-family="'Noto Sans SC', sans-serif" font-size="14" text-anchor="middle" fill="#333333">Add &amp; Norm</text>
    
    <!-- 多头注意力(编码器-解码器) -->
    <rect x="-80" y="200" width="160" height="70" fill="#e6f5ff" stroke="#0099ff" stroke-width="1" rx="5" ry="5"/>
    <text x="0" y="235" font-family="'Noto Sans SC', sans-serif" font-size="14" text-anchor="middle" fill="#333333" font-weight="bold">多头注意力</text>
    <text x="0" y="255" font-family="'Noto Sans SC', sans-serif" font-size="12" text-anchor="middle" fill="#666666">(Multi-Head Attention)</text>
    
    <!-- 解码器中的Add & Norm 2 -->
    <rect x="-80" y="290" width="160" height="30" fill="#ffeecc" stroke="#ffcc00" stroke-width="1" rx="5" ry="5"/>
    <text x="0" y="310" font-family="'Noto Sans SC', sans-serif" font-size="14" text-anchor="middle" fill="#333333">Add &amp; Norm</text>
    
    <!-- 前馈神经网络 -->
    <rect x="-80" y="340" width="160" height="70" fill="#e6f5ff" stroke="#0099ff" stroke-width="1" rx="5" ry="5"/>
    <text x="0" y="380" font-family="'Noto Sans SC', sans-serif" font-size="14" text-anchor="middle" fill="#333333" font-weight="bold">前馈神经网络</text>
    <text x="0" y="400" font-family="'Noto Sans SC', sans-serif" font-size="12" text-anchor="middle" fill="#666666">(Feed Forward Network)</text>
    
    <!-- 解码器中的Add & Norm 3 -->
    <rect x="-80" y="430" width="160" height="30" fill="#ffeecc" stroke="#ffcc00" stroke-width="1" rx="5" ry="5"/>
    <text x="0" y="450" font-family="'Noto Sans SC', sans-serif" font-size="14" text-anchor="middle" fill="#333333">Add &amp; Norm</text>
    
    <!-- 线性层和Softmax -->
    <rect x="-100" y="480" width="200" height="60" fill="#e6fff0" stroke="#00cc66" stroke-width="1" rx="5" ry="5"/>
    <text x="0" y="510" font-family="'Noto Sans SC', sans-serif" font-size="14" text-anchor="middle" fill="#333333" font-weight="bold">线性层 + Softmax</text>
    <text x="0" y="530" font-family="'Noto Sans SC', sans-serif" font-size="12" text-anchor="middle" fill="#666666">(Linear + Softmax)</text>
    
    <!-- 输出嵌入和位置编码 -->
    <rect x="-100" y="560" width="200" height="60" fill="#e6f5ff" stroke="#0099ff" stroke-width="1" rx="5" ry="5"/>
    <text x="0" y="590" font-family="'Noto Sans SC', sans-serif" font-size="14" text-anchor="middle" fill="#333333" font-weight="bold">输出嵌入 + 位置编码</text>
    <text x="0" y="610" font-family="'Noto Sans SC', sans-serif" font-size="12" text-anchor="middle" fill="#666666">(Output Embedding + Position Encoding)</text>
    
    <!-- 输出箭头 -->
    <path d="M 0,480 L 0,460" stroke="#666666" stroke-width="2" fill="none" marker-end="url(#arrowhead)"/>
    <path d="M 0,560 L 0,540" stroke="#666666" stroke-width="2" fill="none" marker-end="url(#arrowhead)"/>
    <path d="M 0,630 L 0,650" stroke="#666666" stroke-width="2" fill="none"/>
    <text x="0" y="670" font-family="'Noto Sans SC', sans-serif" font-size="14" text-anchor="middle" fill="#333333">输出序列</text>
    
    <!-- 从输入到解码器的线 -->
    <path d="M 0,20 L 0,50" stroke="#666666" stroke-width="2" fill="none"/>
    <path d="M 0,130 L 0,150" stroke="#666666" stroke-width="2" fill="none"/>
    <path d="M 0,180 L 0,200" stroke="#666666" stroke-width="2" fill="none"/>
    <path d="M 0,270 L 0,290" stroke="#666666" stroke-width="2" fill="none"/>
    <path d="M 0,320 L 0,340" stroke="#666666" stroke-width="2" fill="none"/>
    <path d="M 0,410 L 0,430" stroke="#666666" stroke-width="2" fill="none"/>
  </g>
  
  <!-- 箭头标记定义 -->
  <defs>
    <marker id="arrowhead" markerWidth="10" markerHeight="7" refX="9" refY="3.5" orient="auto">
      <polygon points="0 0, 10 3.5, 0 7" fill="#666666"/>
    </marker>
  </defs>
  
  <!-- 底部说明 -->
  <rect x="150" y="640" width="500" height="50" fill="#f5f5f5" stroke="#cccccc" stroke-width="1" rx="5" ry="5" opacity="0.8"/>
  <text x="400" y="665" font-family="'Noto Sans SC', sans-serif" font-size="14" text-anchor="middle" fill="#333333">
    <tspan x="400" dy="0">Transformer架构由编码器-解码器组成，核心是自注意力机制，</tspan>
    <tspan x="400" dy="20">支持并行计算，是目前大语言模型的基础架构。</tspan>
  </text>
</svg> 